<?xml version="1.0" encoding="UTF-8"?>
<!-- Do not edit this file with editors other than draw.io -->
<!DOCTYPE svg PUBLIC "-//W3C//DTD SVG 1.1//EN" "http://www.w3.org/Graphics/SVG/1.1/DTD/svg11.dtd">
<svg xmlns="http://www.w3.org/2000/svg" style="background: white; background-color: white;" xmlns:xlink="http://www.w3.org/1999/xlink" version="1.1" width="301px" height="301px" viewBox="0 0 301 301" content="&lt;mxfile host=&quot;app.diagrams.net&quot; scale=&quot;1&quot; border=&quot;0&quot;&gt;&#10;  &lt;diagram id=&quot;30Y0ygrzzzm1JAlbKlGk&quot; name=&quot;WirelessFavicon&quot;&gt;&#10;    &lt;mxGraphModel dx=&quot;1828&quot; dy=&quot;666&quot; grid=&quot;1&quot; gridSize=&quot;10&quot; guides=&quot;1&quot; tooltips=&quot;1&quot; connect=&quot;1&quot; arrows=&quot;1&quot; fold=&quot;1&quot; page=&quot;1&quot; pageScale=&quot;1&quot; pageWidth=&quot;850&quot; pageHeight=&quot;1100&quot; math=&quot;0&quot; shadow=&quot;0&quot;&gt;&#10;      &lt;root&gt;&#10;        &lt;mxCell id=&quot;0&quot; /&gt;&#10;        &lt;mxCell id=&quot;1&quot; parent=&quot;0&quot; /&gt;&#10;        &lt;mxCell id=&quot;QmNLQvyxV-6qJEFKcfab-19&quot; connectable=&quot;0&quot; parent=&quot;1&quot; style=&quot;group&quot; value=&quot;&quot; vertex=&quot;1&quot;&gt;&#10;          &lt;mxGeometry height=&quot;300&quot; width=&quot;300&quot; x=&quot;-590&quot; y=&quot;400&quot; as=&quot;geometry&quot; /&gt;&#10;        &lt;/mxCell&gt;&#10;        &lt;mxCell id=&quot;QmNLQvyxV-6qJEFKcfab-13&quot; parent=&quot;QmNLQvyxV-6qJEFKcfab-19&quot; style=&quot;rounded=1;whiteSpace=wrap;html=1;fillColor=#FFFFFF;strokeColor=none;fillStyle=solid;&quot; value=&quot;&quot; vertex=&quot;1&quot;&gt;&#10;          &lt;mxGeometry height=&quot;300&quot; width=&quot;300&quot; as=&quot;geometry&quot; /&gt;&#10;        &lt;/mxCell&gt;&#10;        &lt;mxCell id=&quot;QmNLQvyxV-6qJEFKcfab-1&quot; parent=&quot;QmNLQvyxV-6qJEFKcfab-19&quot; style=&quot;points=[[0.005,0.09,0],[0.08,0,0],[0.76,0.25,0],[1,0.92,0],[0.91,0.995,0],[0.57,0.995,0],[0.045,0.955,0],[0.005,0.43,0]];verticalLabelPosition=bottom;sketch=0;html=1;verticalAlign=top;aspect=fixed;align=center;pointerEvents=1;shape=mxgraph.cisco19.3g_4g_indicator;fillOpacity=100;strokeWidth=0;strokeColor=none;fillColor=#00205B;fillStyle=auto;&quot; value=&quot;&quot; vertex=&quot;1&quot;&gt;&#10;          &lt;mxGeometry height=&quot;79&quot; width=&quot;79&quot; x=&quot;200&quot; y=&quot;20&quot; as=&quot;geometry&quot; /&gt;&#10;        &lt;/mxCell&gt;&#10;        &lt;mxCell id=&quot;QmNLQvyxV-6qJEFKcfab-20&quot; parent=&quot;QmNLQvyxV-6qJEFKcfab-19&quot; style=&quot;shape=image;verticalLabelPosition=bottom;labelBackgroundColor=default;verticalAlign=top;aspect=fixed;imageAspect=0;editableCssRules=.*;image=data:image/svg+xml,PHN2ZyB4bWxucz0iaHR0cDovL3d3dy53My5vcmcvMjAwMC9zdmciIGlkPSJMYXllcl80IiBkYXRhLW5hbWU9IkxheWVyIDQiIHZpZXdCb3g9IjAgMCAxNzcuNTQgMjExLjUyMDM3ODExMjc5Mjk3IiB3aWR0aD0iMTc3LjU0IiBoZWlnaHQ9IjIxMS41MjAzNzgxMTI3OTI5NyI+PGRlZnM+PHN0eWxlPi5jbHMtMXtmaWxsOiNmZmY7c3Ryb2tlOiMwZDJkNmM7c3Ryb2tlLW1pdGVybGltaXQ6MTA7fS5jbHMtMntmaWxsOiMwMDIxNjk7fTwvc3R5bGU+PC9kZWZzPjx0aXRsZT5SaWNlX093bF9GbGF0XzI4MF9CbHVlPC90aXRsZT48cGF0aCBjbGFzcz0iY2xzLTEiIGQ9Ik0yNDYuNDcsMjQ3LjE0bC0uMzQtMS4wOWMtMi44Ny05LTQuNTUtMTkuMTItNi41LTMwLjc5LTIuNjYtMTUuOTUtNS42OC0zNC0xMi42Ny01NC41OC01LjE5LTE1LjI1LTE1LjE0LTI4LjM3LTI3LjYzLTM2LjY1YTIsMiwwLDAsMS0uNDctMi44NEEzOS43OSwzOS43OSwwLDAsMCwxNDAsNjhhMS45MywxLjkzLDAsMCwxLTIuNjgsMCwzOS43OCwzOS43OCwwLDEsMC01Miw2MC4xLDIuNTQsMi41NCwwLDAsMSwuOTMsMi40LDg2Ljg5LDg2Ljg5LDAsMCwwLDM4LjUzLDg3LjA1bDAsMEExMDQsMTA0LDAsMCwwLDEzOSwyMjkuNzlhMi4wNSwyLjA1LDAsMCwxLC43LDIuNDQsOTguOTQsOTguOTQsMCwwLDEtNy42MywxNC45Miw4Ljg2LDguODYsMCwwLDEtNy41OCw0LjEzaC0zLjg1YTEwLjExLDEwLjExLDAsMCwwLTkuNDUsNi40NGwtMS42OSw0LjM2YTMuODgsMy44OCwwLDAsMCwuNCwzLjYzLDMuOTMsMy45MywwLDAsMCwzLjI1LDEuNzNIMTYxLjlhOCw4LDAsMCwwLDIuMTgtLjUxLDE0LjgxLDE0LjgxLDAsMCwwLDEuNi0uNjQsMy42NywzLjY3LDAsMCwxLDEuNTYtLjM2LDMuNjIsMy42MiwwLDAsMSwxLjQ4LjMyLDEwLjIxLDEwLjIxLDAsMCwwLDEuMTUuNDYsMTIuNjcsMTIuNjcsMCwwLDAsNC4yNi43M0gxNzZhNS4zMyw1LjMzLDAsMCwwLDMuNzYtMS40OSw1LjE5LDUuMTksMCwwLDAsMS40LTUuMDdsLS44OS0zLjQxYTguMyw4LjMsMCwwLDAtNC4wNy01LjE3LjgxLjgxLDAsMCwxLS4zLTEuMTdjMS4wNi0xLjYxLDIuMDgtMy4yOCwzLjA3LTV2MGExLjYsMS42LDAsMCwxLDIuMDctLjY1LDE2NC4wNywxNjQuMDcsMCwwLDAsMjUuNDksOS41NywxLjkyLDEuOTIsMCwwLDAsMi4wOS0uNzVoMGMxLjgyLTIuNTYsMy41OS01LjMsNS4yNC04LjE1LjgzLTEuNDIsMS42LTIuODcsMi4zNC00LjMyYTEuNzEsMS43MSwwLDAsMSwyLjIyLS44LDEwNC40NywxMDQuNDcsMCwwLDAsMjUuNTksNy41bDEuMTQuMThBMS4yMiwxLjIyLDAsMCwwLDI0Ni40NywyNDcuMTRaIiB0cmFuc2Zvcm09InRyYW5zbGF0ZSgtNjkuNDkgLTU2LjQyKSIvPjxwYXRoIGNsYXNzPSJjbHMtMiIgZD0iTTI0Ni40NywyNDcuMTRsLS4zNC0xLjA5Yy0yLjg3LTktNC41NS0xOS4xMi02LjUtMzAuNzktMi42Ni0xNS45NS01LjY4LTM0LTEyLjY3LTU0LjU4LTUuMTktMTUuMjUtMTUuMTQtMjguMzctMjcuNjMtMzYuNjVhMiwyLDAsMCwxLS40Ny0yLjg0QTM5Ljc5LDM5Ljc5LDAsMCwwLDE0MCw2OGExLjkzLDEuOTMsMCwwLDEtMi42OCwwLDM5Ljc4LDM5Ljc4LDAsMSwwLTUyLDYwLjEsMi41NCwyLjU0LDAsMCwxLC45MywyLjQsODYuODksODYuODksMCwwLDAsMzguNTMsODcuMDVsMCwwQTEwNCwxMDQsMCwwLDAsMTM5LDIyOS43OWEyLjA1LDIuMDUsMCwwLDEsLjcsMi40NCw5OC45NCw5OC45NCwwLDAsMS03LjYzLDE0LjkyLDguODYsOC44NiwwLDAsMS03LjU4LDQuMTNoLTMuODVhMTAuMTEsMTAuMTEsMCwwLDAtOS40NSw2LjQ0bC0xLjY5LDQuMzZhMy44OCwzLjg4LDAsMCwwLC40LDMuNjMsMy45MywzLjkzLDAsMCwwLDMuMjUsMS43M0gxNjEuOWE4LDgsMCwwLDAsMi4xOC0uNTEsMTQuODEsMTQuODEsMCwwLDAsMS42LS42NCwzLjY3LDMuNjcsMCwwLDEsMS41Ni0uMzYsMy42MiwzLjYyLDAsMCwxLDEuNDguMzIsMTAuMjEsMTAuMjEsMCwwLDAsMS4xNS40NiwxMi42NywxMi42NywwLDAsMCw0LjI2LjczSDE3NmE1LjMzLDUuMzMsMCwwLDAsMy43Ni0xLjQ5LDUuMTksNS4xOSwwLDAsMCwxLjQtNS4wN2wtLjg5LTMuNDFhOC4zLDguMywwLDAsMC00LjA3LTUuMTcuODEuODEsMCwwLDEtLjMtMS4xN2MxLjA2LTEuNjEsMi4wOC0zLjI4LDMuMDctNXYwYTEuNiwxLjYsMCwwLDEsMi4wNy0uNjUsMTY0LjA3LDE2NC4wNywwLDAsMCwyNS40OSw5LjU3LDEuOTIsMS45MiwwLDAsMCwyLjA5LS43NWgwYzEuODItMi41NiwzLjU5LTUuMyw1LjI0LTguMTUuODMtMS40MiwxLjYtMi44NywyLjM0LTQuMzJhMS43MSwxLjcxLDAsMCwxLDIuMjItLjgsMTA0LjQ3LDEwNC40NywwLDAsMCwyNS41OSw3LjVsMS4xNC4xOEExLjIyLDEuMjIsMCwwLDAsMjQ2LjQ3LDI0Ny4xNFptLTQ2LTEzNi4yMWEzNi4wOCwzNi4wOCwwLDAsMS0xNC45NCwxNi44M0ExLjcxLDEuNzEsMCwwLDEsMTgzLDEyNi4xYTI3LDI3LDAsMCwwLTItMTIuODcsNy4zOCw3LjM4LDAsMCwxLC41OC02LjU2LDE5LjI2LDE5LjI2LDAsMCwwLDIuNjktOC4yMSwyLjE0LDIuMTQsMCwwLDEsMi41OC0xLjg3LDIzLDIzLDAsMCwxLDEyLjQ1LDYuODVBNyw3LDAsMCwxLDIwMC40NywxMTAuOTNaTTE5My4xLDc0LjEyaDBhNS4xNCw1LjE0LDAsMCwxLDMuOTMsMi4yLDM1LjcxLDM1LjcxLDAsMCwxLDYuMzcsMjAuMzljMCwuNTEsMCwxLDAsMS41NGExLjYsMS42LDAsMCwxLTIuNjksMS4wOSwyOC4wNSwyOC4wNSwwLDAsMC0xNC4xOS02Ljc1QTQuNjMsNC42MywwLDAsMSwxODMsODkuNzFhMTkuNiwxOS42LDAsMCwwLTQuMi02LjUxLDIuODksMi44OSwwLDAsMSwuMjktNC4zQTIwLjU0LDIwLjU0LDAsMCwxLDE5My4xLDc0LjEyWm0tNTQuNDcsMjcuMjZhMTEuNTcsMTEuNTcsMCwwLDEsMTEuNTcsMTEuNTZBMTEuNDYsMTEuNDYsMCwwLDEsMTQ5LDExOGwtOS4xMiwxOS4xOGExLjQsMS40LDAsMCwxLTIuNTMsMGwtOS4xMS0xOS4xNnYwYTExLjMyLDExLjMyLDAsMCwxLTEuMTgtNS4wOUExMS41NywxMS41NywwLDAsMSwxMzguNjMsMTAxLjM4Wm0tMjYuMzksMTAuNzhhMTUuNDUsMTUuNDUsMCwxLDEsMTUuNDUtMTUuNDVBMTUuNDcsMTUuNDcsMCwwLDEsMTEyLjI0LDExMi4xNlptMzcuMzQtMTUuNDVBMTUuNDUsMTUuNDUsMCwxLDEsMTY1LDExMi4xNiwxNS40NywxNS40NywwLDAsMSwxNDkuNTgsOTYuNzFaTTE2OSw2MmExOSwxOSwwLDAsMSw4LjM5LjE1LDM1LjY1LDM1LjY1LDAsMCwxLDExLjMyLDUuNTksMS41OCwxLjU4LDAsMCwxLS42NiwyLjgyLDI1Ljc4LDI1Ljc4LDAsMCwwLTEyLDUuNzgsNy41Nyw3LjU3LDAsMCwxLTYuNiwxLjU0LDE5LjY1LDE5LjY1LDAsMCwwLTQuNS0uNTMsMTkuMjIsMTkuMjIsMCwwLDAtMTEuNzYsNCwxLjIyLDEuMjIsMCwwLDEtMS44OS0xLjM0QzE1NC40NSw3MC41LDE2MC44Myw2My41NCwxNjksNjJabS00Ni44MiwxYTM1Ljg0LDM1Ljg0LDAsMCwxLDE0Ljk0LDEwLjQ2LDEuOTQsMS45NCwwLDAsMCwyLjk0LDBBMzUuOSwzNS45LDAsMCwxLDE1NSw2M2ExLDEsMCwwLDEsMS4wNywxLjcsMzEuNDEsMzEuNDEsMCwwLDAtNS45MSw4LjA5LDQ2LDQ2LDAsMCwwLTQuNiwyMy45MSwxLjU4LDEuNTgsMCwwLDEtMi4wOCwxLjYsMTUuNSwxNS41LDAsMCwwLTkuNzcsMCwxLjU4LDEuNTgsMCwwLDEtMi4wOC0xLjYsNDYsNDYsMCwwLDAtNC42MS0yMy45MSwzMS4zOCwzMS4zOCwwLDAsMC01LjktOC4wOUExLDEsMCwwLDEsMTIyLjIyLDYzWk04OC41MSw2Ny43N2EzNS42NSwzNS42NSwwLDAsMSwxMS4zMi01LjU5LDE5LDE5LDAsMCwxLDguNC0uMTVjOC4yMSwxLjUxLDE0LjU4LDguNDcsMTcuNjYsMThBMS4yMiwxLjIyLDAsMCwxLDEyNCw4MS4zOWExOS4yMiwxOS4yMiwwLDAsMC0xMS43Ni00LDE5LjU5LDE5LjU5LDAsMCwwLTQuNS41Myw3LjU3LDcuNTcsMCwwLDEtNi42LTEuNTQsMjUuODIsMjUuODIsMCwwLDAtMTItNS43OEExLjU4LDEuNTgsMCwwLDEsODguNTEsNjcuNzdaTTczLjg4LDk4LjI1YzAtLjUxLDAtMSwwLTEuNTRhMzUuNywzNS43LDAsMCwxLDYuMzYtMjAuMzksNS4xOCw1LjE4LDAsMCwxLDMuOTMtMi4yaDBhMjAuNSwyMC41LDAsMCwxLDE0LDQuNzgsMi44OSwyLjg5LDAsMCwxLC4zLDQuMywxOS4yOSwxOS4yOSwwLDAsMC00LjIsNi41MSw0LjY1LDQuNjUsMCwwLDEtMy40NywyLjg4LDI4LjA5LDI4LjA5LDAsMCwwLTE0LjE5LDYuNzVBMS42LDEuNiwwLDAsMSw3My44OCw5OC4yNVptMi45MSwxMi42OEE3LDcsMCwwLDEsNzgsMTAzLjQ0LDIzLDIzLDAsMCwxLDkwLjM3LDk2LjZhMi4xNywyLjE3LDAsMCwxLDEuNTIuMjNsMCwwQTIuMTMsMi4xMywwLDAsMSw5Myw5OC40OWExOS4wOCwxOS4wOCwwLDAsMCwyLjY4LDguMTcsNy40NCw3LjQ0LDAsMCwxLC41OSw2LjU3LDI3LjA2LDI3LjA2LDAsMCwwLTIsMTIuODcsMS43MiwxLjcyLDAsMCwxLTIuNTcsMS42N0EzNi4xNSwzNi4xNSwwLDAsMSw3Ni43OSwxMTAuOTNabTMwLjA5LDg1LjIxYy0uNTctLjcyLTEuMTMtMS40NS0xLjY4LTIuMmE4Mi4zNSw4Mi4zNSwwLDAsMS0xNi4yNy00OS4zOSw4MC44MSw4MC44MSwwLDAsMSwuNzItMTAuNzksMS43NSwxLjc1LDAsMCwxLDIuNTItMS4zNWwuMDYsMGE2LjI4LDYuMjgsMCwwLDEsMy41MSw2Yy0uMTMsMi4xNS0uMjEsNC4zNS0uMjEsNi4xMWExMDUuMjUsMTA1LjI1LDAsMCwwLDEyLjgzLDUwLjZBLjg5Ljg5LDAsMCwxLDEwNi44OCwxOTYuMTRabTMwLjgzLDYxLjU4LTEsMi41NS0uNzEsMS44MmgwYTIuMjYsMi4yNiwwLDAsMS0yLjA5LDEuNDNsLTkuMTQsMGEuNDcuNDcsMCwwLDEtLjQ0LS42NGwxLjEtMi44NGExLDEsMCwwLDAtLjU1LTEuMjYsMi44OSwyLjg5LDAsMCwwLTMuNzQsMS42NGwtLjY2LDEuNjhoMGEyLjEyLDIuMTIsMCwwLDEtMiwxLjRoLTQuMjZhLjguOCwwLDAsMS0uNzUtMS4xbDEuMjctMy4yNmE2LjI0LDYuMjQsMCwwLDEsNS44NS00aDMuODVhMTIuNzEsMTIuNzEsMCwwLDAsMTAuODYtNS45NCwxMDMuMTUsMTAzLjE1LDAsMCwwLDcuOC0xNS4yMywxLDEsMCwwLDEsMS4zOS0uNDRjMS44NywxLjE4LDMuOCwyLjMxLDUuNzYsMy4zOGEyLjUxLDIuNTEsMCwwLDEsMSwzLjMzLDk5LjE3LDk5LjE3LDAsMCwxLTUuODYsOS44Niw2LDYsMCwwLDEtMi41MywyLjFBMTAuMTUsMTAuMTUsMCwwLDAsMTM3LjcxLDI1Ny43MlpNMTYzLDIzNS42NGExLjcsMS43LDAsMCwxLC42OCwyLjIyLDk5LjU4LDk5LjU4LDAsMCwxLTUuMDksOS4yOSw4Ljg5LDguODksMCwwLDEtNy41OSw0LjEzLjkyLjkyLDAsMCwxLS43Ny0xLjQxLDEwNC44LDEwNC44LDAsMCwwLDgtMTUuMzUsMS4yOSwxLjI5LDAsMCwxLDEuODgtLjU5UTE2MS41NywyMzQuOCwxNjMsMjM1LjY0Wm0tMi40OC02LjkxYy4zOC0xLjA4Ljc0LTIuMTYsMS4wOC0zLjI1YS44LjgsMCwwLDEsMS4yOS0uMzdxMiwxLjY4LDQuMTEsMy4yOGEuOTEuOTEsMCwwLDEsLjMsMS4wNWMtLjMzLjktLjY3LDEuNzktMSwyLjY4YS43My43MywwLDAsMS0xLC4zNXEtMi4yMi0xLjI4LTQuMzMtMi42M0ExLDEsMCwwLDEsMTYwLjUzLDIyOC43M1ptMTgsMTBxLTEuMzcsMi43Ny0yLjkyLDUuNDhjLTEuNTksMi43My0zLjI5LDUuMzgtNS4wNiw3Ljg3bC0xLjYsMi4zMmEuNDcuNDcsMCwwLDAsLjM4LjczaDIuODZhNC40OCw0LjQ4LDAsMCwxLDQuMzMsMy4zM2wuODksMy40YTEuMzIsMS4zMiwwLDAsMS0uMjQsMS4xNywxLjM0LDEuMzQsMCwwLDEtMS4wOC41M2gtMS45NGE4LjgsOC44LDAsMCwxLTMtLjUsOS41LDkuNSwwLDAsMS0yLjI3LTEuMTUsMi42MywyLjYzLDAsMCwwLS45Mi0uNDEsMi44NCwyLjg0LDAsMCwwLTIuMTcuMzJsLS43NS40NGE5LjIxLDkuMjEsMCwwLDEtMy40NiwxLjE2bC0uNDUuMDZhMTIuMjIsMTIuMjIsMCwwLDEtMS4zNS4wOEgxNTJhMSwxLDAsMCwxLS45Mi0xLjM1bC44OS0yLjI3YS44OC44OCwwLDAsMC0uNS0xLjEzLDMsMywwLDAsMC0zLjg3LDEuNjlsLS40NSwxLjE5YTIuODMsMi44MywwLDAsMS0yLjY4LDEuODVoLTRhLjYzLjYzLDAsMCwxLS41Mi0uMjguNjQuNjQsMCwwLDEtLjA4LS42bDEuNjMtNC4xOWE1LjIzLDUuMjMsMCwwLDEsNC44OC0zLjMzSDE1MWExMi43MSwxMi43MSwwLDAsMCwxMC44Ni01Ljk0LDEwNC41NCwxMDQuNTQsMCwwLDAsOC41Ni0xNy4xMy43OS43OSwwLDAsMSwxLjE5LS4zN3EyLjg3LDEuOTQsNS44OCwzLjcxQTIuNTQsMi41NCwwLDAsMSwxNzguNTEsMjM4Ljc0Wm0xLjgtNi4xNmExMDUuNTUsMTA1LjU1LDAsMCwxLTkuMy02LDEwMy44OSwxMDMuODksMCwwLDEtOC43My03LjE1QTEwMS41MSwxMDEuNTEsMCwwLDEsMTQzLjgyLDE5N2ExLDEsMCwwLDAtMS4zMi0uMzMsMi44NiwyLjg2LDAsMCwwLTEsNCwxMDUuNTQsMTA1LjU0LDAsMCwwLDEzLjM5LDE3LDkuMjIsOS4yMiwwLDAsMSwyLjA2LDkuNDhjLS43NywyLjIxLTEuNjIsNC4zOC0yLjU1LDYuNTNhLjg4Ljg4LDAsMCwxLTEuMjIuNDMsMTAwLjc4LDEwMC43OCwwLDAsMS01My44My04OS41NWMwLTEuNjkuMDktMy44Ny4yMS02YTIuODMsMi44MywwLDAsMSwzLjMtMi42Miw0MC4yNyw0MC4yNywwLDAsMCw2Ljg4LjU5SDEyNGExLjA5LDEuMDksMCwwLDAsMS4xLTEuMDYsMi43NiwyLjc2LDAsMCwwLTIuNzYtMi43OWgtMTIuNmEzNS41NiwzNS41NiwwLDAsMS01LjQtLjQxLDcuMzUsNy4zNSwwLDAsMS02LjIyLTYuNCwyMi44OCwyMi44OCwwLDAsMSwxLjQ1LTEwLjUzLDIuNjYsMi42NiwwLDAsMSwzLjc0LTEuNDQsMTkuMywxOS4zLDAsMCwwLDE3Ljc4LDAsMS41LDEuNSwwLDAsMSwxLjQxLDBsMCwwYTEuNTMsMS41MywwLDAsMSwuNzYsMS4xMiwxNC44NywxNC44NywwLDAsMCwxLjQzLDQuN0wxMzQuNDEsMTQwYTQuNjgsNC42OCwwLDAsMCw4LjQ1LDBsOS42My0yMC4yNWExNS40LDE1LjQsMCwwLDAsMS40My00LjcsMS41NywxLjU3LDAsMCwxLC41My0xLDEuNSwxLjUsMCwwLDEsMS42NC0uMTcsMTkuMywxOS4zLDAsMCwwLDE3LjgyLDAsMi42OCwyLjY4LDAsMCwxLDMuNzUsMS40NCwyMywyMywwLDAsMSwxLjQ3LDEwLjMzLDcuNDMsNy40MywwLDAsMS02LjI1LDYuNiwzNS41MywzNS41MywwLDAsMS01LjM5LjQxaC0xMi42YTIuNzUsMi43NSwwLDAsMC0yLjc2LDIuNzksMS4wOCwxLjA4LDAsMCwwLDEuMSwxLjA2aC42MWExLjYxLDEuNjEsMCwwLDEsMS42LDEuNzJjLS4xNCwyLjA5LS4yMiw0LjItLjIyLDYuMzRhMTA1LjI2LDEwNS4yNiwwLDAsMCwyNS41Miw2OC43MWMuMzMuMzkuNjYuNzYsMSwxLjE0YTExLjExLDExLjExLDAsMCwxLDIuMywxMC44OXEtMS4xNiwzLjUtMi41NSw2Ljg5QS44Mi44MiwwLDAsMSwxODAuMzEsMjMyLjU4Wm0zMC44NCwxMC40OWMtLjIyLjM5LS40My43Ny0uNjYsMS4xNS0xLjIsMi4wNy0yLjQ3LDQuMDktMy43Nyw2YTEuMjIsMS4yMiwwLDAsMS0xLjM0LjQ4LDE2Mi4yMSwxNjIuMjEsMCwwLDEtMjMuMjEtOC45NS43Ny43NywwLDAsMS0uMzQtMSwxMDYuMjcsMTA2LjI3LDAsMCwwLDYuMjItMTUuMzEsMi4zOCwyLjM4LDAsMCwxLDMuODEtMS4wOSwxMDYuNDQsMTA2LjQ0LDAsMCwwLDE3LjQ0LDEyLjJBNC44LDQuOCwwLDAsMSwyMTEuMTUsMjQzLjA3Wm0yOS4zOC45M2ExMDEuNDksMTAxLjQ5LDAsMCwxLTgxLjQ1LTk5LjQ1YzAtMS43OC4wNi0zLjU1LjE2LTUuMzFhMi45MywyLjkzLDAsMCwxLDIuOTItMi43NWg1YTQwLjM4LDQwLjM4LDAsMCwwLDI1LjEzLTguNjksNC41OSw0LjU5LDAsMCwxLDUuNDMtLjE5YzExLjUzLDcuODMsMjAuNzIsMjAuMDgsMjUuNTYsMzQuMzFBMjc0LjE4LDI3NC4xOCwwLDAsMSwyMzMuMjQsMjAxYS42NC42NCwwLDAsMS0uOTIuNjksNjQuNDMsNjQuNDMsMCwwLDEtMjAuMTEtMTUuNTcsNjMuNjUsNjMuNjUsMCwwLDEtMTMuMzgtMjUuNTcsMi42NSwyLjY1LDAsMCwwLTMuMDktMS45MWgwYTEuMjcsMS4yNywwLDAsMC0xLDEuNTQsNjcuMzcsNjcuMzcsMCwwLDAsMTQuNTMsMjguNDYsNjguMTEsNjguMTEsMCwwLDAsMjEuMTgsMTYuNDIsOC40Niw4LjQ2LDAsMCwxLDQuNTcsNi4xN2MuMjcsMS41Ny41MywzLjEzLjc4LDQuNjYuMzksMi4zNC43Nyw0LjYxLDEuMTUsNi44M2EuNjQuNjQsMCwwLDEtLjgyLjcyLDgyLjY4LDgyLjY4LDAsMCwxLTUzLjU2LTUxLjUzLDIuNjMsMi42MywwLDAsMC0zLjI2LTEuNjIsMS4yOCwxLjI4LDAsMCwwLS44MiwxLjYyLDg2LjQ1LDg2LjQ1LDAsMCwwLDU0LjYxLDU0LjYsOC42NSw4LjY1LDAsMCwxLDUuNzUsNi40NmMuNzIsMy41NCwxLjQ5LDcsMi4zOSwxMC4yM0EuNjMuNjMsMCwwLDEsMjQwLjUzLDI0NFoiIHRyYW5zZm9ybT0idHJhbnNsYXRlKC02OS40OSAtNTYuNDIpIi8+PHBhdGggY2xhc3M9ImNscy0yIiBkPSJNMTEzLjM2LDEwNC40OUExMC4xNiwxMC4xNiwwLDAsMSwxMDYuNSw4OC4yYS41NC41NCwwLDAsMC0uNzQtLjc1LDExLjMsMTEuMywwLDEsMCwxNS43NCwxNS43NC41NC41NCwwLDAsMC0uNzYtLjc0QTEwLjE3LDEwLjE3LDAsMCwxLDExMy4zNiwxMDQuNDlaIiB0cmFuc2Zvcm09InRyYW5zbGF0ZSgtNjkuNDkgLTU2LjQyKSIvPjxwYXRoIGNsYXNzPSJjbHMtMiIgZD0iTTE2Ni4xNSwxMDQuNDlhMTAuMTYsMTAuMTYsMCwwLDEtNi44Ni0xNi4yOS41NC41NCwwLDAsMC0uNzQtLjc1LDExLjMsMTEuMywwLDEsMCwxNS43NCwxNS43NC41NC41NCwwLDAsMC0uNzYtLjc0QTEwLjE3LDEwLjE3LDAsMCwxLDE2Ni4xNSwxMDQuNDlaIiB0cmFuc2Zvcm09InRyYW5zbGF0ZSgtNjkuNDkgLTU2LjQyKSIvPjwvc3ZnPg==;&quot; value=&quot;&quot; vertex=&quot;1&quot;&gt;&#10;          &lt;mxGeometry height=&quot;230.09&quot; width=&quot;193.19&quot; x=&quot;40&quot; y=&quot;35&quot; as=&quot;geometry&quot; /&gt;&#10;        &lt;/mxCell&gt;&#10;      &lt;/root&gt;&#10;    &lt;/mxGraphModel&gt;&#10;  &lt;/diagram&gt;&#10;&lt;/mxfile&gt;&#10;"><defs/><rect width="301" height="301" fill="white"/><g><g data-cell-id="0"><g data-cell-id="1"><g data-cell-id="QmNLQvyxV-6qJEFKcfab-19"><g transform="translate(0.5,0.5)"/><g data-cell-id="QmNLQvyxV-6qJEFKcfab-13"><g transform="translate(0.5,0.5)"><rect x="0" y="0" width="300" height="300" rx="45" ry="45" fill="#ffffff" stroke="none" pointer-events="all" style="fill: rgb(255, 255, 255);"/></g></g><g data-cell-id="QmNLQvyxV-6qJEFKcfab-1"><g transform="translate(0.5,0.5)"><rect x="200" y="20" width="79" height="79" fill="none" stroke="none" pointer-events="all"/><path d="M 207.82 20.07 C 203.81 20.03 200.51 23.29 200.47 27.36 C 200.42 31.43 203.64 34.77 207.65 34.82 L 213.62 34.89 C 213.65 34.89 213.68 34.89 213.7 34.89 C 229.63 34.89 242.07 41.82 250.86 51.58 C 259.66 61.34 264.42 74.05 264.42 84.1 C 264.42 84.1 264.42 84.1 264.42 84.11 L 264.43 91.07 C 264.44 95.14 267.7 98.43 271.71 98.43 C 275.72 98.42 278.97 95.12 278.96 91.04 L 278.95 84.1 C 278.95 69.6 272.76 54.02 261.59 41.62 C 250.41 29.23 233.86 20.14 213.7 20.14 L 213.78 20.14 Z M 214.8 47.01 L 207.7 47.02 C 203.68 47.03 200.43 50.33 200.44 54.4 C 200.44 58.47 203.7 61.77 207.71 61.77 L 214.81 61.76 C 219.71 61.76 225.79 64.45 230.38 69.01 C 234.97 73.56 237.92 79.63 237.92 85.69 C 237.92 85.71 237.92 85.72 237.92 85.74 L 237.96 91.24 C 237.98 95.31 241.26 98.59 245.27 98.57 C 249.28 98.54 252.52 95.22 252.49 91.15 L 252.46 85.69 C 252.46 74.94 247.49 65.35 240.54 58.46 C 233.58 51.56 224.47 47.01 214.81 47.01 C 214.81 47.01 214.8 47.01 214.8 47.01 Z M 222.93 87.09 C 222.93 93.41 217.88 98.53 211.65 98.53 C 205.42 98.53 200.37 93.41 200.37 87.09 C 200.37 80.77 205.42 75.64 211.65 75.64 C 217.88 75.64 222.93 80.77 222.93 87.09 Z" fill="#00205b" stroke="none" pointer-events="all" style="fill: light-dark(rgb(0, 32, 91), rgb(187, 214, 255));"/></g></g><g data-cell-id="QmNLQvyxV-6qJEFKcfab-20"><g><g><svg xmlns="http://www.w3.org/2000/svg" id="svg-image-W_Bnha9LTAnzGVPiVRvK" data-name="Layer 4" viewBox="0 0 177.54 211.52037811279297" width="193.19" height="230.09" x="40" y="35" style="font-family: initial;"><defs><style>#svg-image-W_Bnha9LTAnzGVPiVRvK .cls-1 { fill: rgb(255, 255, 255); stroke: rgb(13, 45, 108); stroke-miterlimit: 10; }&#xa;#svg-image-W_Bnha9LTAnzGVPiVRvK .cls-2 { fill: rgb(0, 33, 105); }&#xa;</style></defs><title>Rice_Owl_Flat_280_Blue</title><path class="cls-1" d="M246.47,247.14l-.34-1.09c-2.87-9-4.55-19.12-6.5-30.79-2.66-15.95-5.68-34-12.67-54.58-5.19-15.25-15.14-28.37-27.63-36.65a2,2,0,0,1-.47-2.84A39.79,39.79,0,0,0,140,68a1.93,1.93,0,0,1-2.68,0,39.78,39.78,0,1,0-52,60.1,2.54,2.54,0,0,1,.93,2.4,86.89,86.89,0,0,0,38.53,87.05l0,0A104,104,0,0,0,139,229.79a2.05,2.05,0,0,1,.7,2.44,98.94,98.94,0,0,1-7.63,14.92,8.86,8.86,0,0,1-7.58,4.13h-3.85a10.11,10.11,0,0,0-9.45,6.44l-1.69,4.36a3.88,3.88,0,0,0,.4,3.63,3.93,3.93,0,0,0,3.25,1.73H161.9a8,8,0,0,0,2.18-.51,14.81,14.81,0,0,0,1.6-.64,3.67,3.67,0,0,1,1.56-.36,3.62,3.62,0,0,1,1.48.32,10.21,10.21,0,0,0,1.15.46,12.67,12.67,0,0,0,4.26.73H176a5.33,5.33,0,0,0,3.76-1.49,5.19,5.19,0,0,0,1.4-5.07l-.89-3.41a8.3,8.3,0,0,0-4.07-5.17.81.81,0,0,1-.3-1.17c1.06-1.61,2.08-3.28,3.07-5v0a1.6,1.6,0,0,1,2.07-.65,164.07,164.07,0,0,0,25.49,9.57,1.92,1.92,0,0,0,2.09-.75h0c1.82-2.56,3.59-5.3,5.24-8.15.83-1.42,1.6-2.87,2.34-4.32a1.71,1.71,0,0,1,2.22-.8,104.47,104.47,0,0,0,25.59,7.5l1.14.18A1.22,1.22,0,0,0,246.47,247.14Z" transform="translate(-69.49 -56.42)"/><path class="cls-2" d="M246.47,247.14l-.34-1.09c-2.87-9-4.55-19.12-6.5-30.79-2.66-15.95-5.68-34-12.67-54.58-5.19-15.25-15.14-28.37-27.63-36.65a2,2,0,0,1-.47-2.84A39.79,39.79,0,0,0,140,68a1.93,1.93,0,0,1-2.68,0,39.78,39.78,0,1,0-52,60.1,2.54,2.54,0,0,1,.93,2.4,86.89,86.89,0,0,0,38.53,87.05l0,0A104,104,0,0,0,139,229.79a2.05,2.05,0,0,1,.7,2.44,98.94,98.94,0,0,1-7.63,14.92,8.86,8.86,0,0,1-7.58,4.13h-3.85a10.11,10.11,0,0,0-9.45,6.44l-1.69,4.36a3.88,3.88,0,0,0,.4,3.63,3.93,3.93,0,0,0,3.25,1.73H161.9a8,8,0,0,0,2.18-.51,14.81,14.81,0,0,0,1.6-.64,3.67,3.67,0,0,1,1.56-.36,3.62,3.62,0,0,1,1.48.32,10.21,10.21,0,0,0,1.15.46,12.67,12.67,0,0,0,4.26.73H176a5.33,5.33,0,0,0,3.76-1.49,5.19,5.19,0,0,0,1.4-5.07l-.89-3.41a8.3,8.3,0,0,0-4.07-5.17.81.81,0,0,1-.3-1.17c1.06-1.61,2.08-3.28,3.07-5v0a1.6,1.6,0,0,1,2.07-.65,164.07,164.07,0,0,0,25.49,9.57,1.92,1.92,0,0,0,2.09-.75h0c1.82-2.56,3.59-5.3,5.24-8.15.83-1.42,1.6-2.87,2.34-4.32a1.71,1.71,0,0,1,2.22-.8,104.47,104.47,0,0,0,25.59,7.5l1.14.18A1.22,1.22,0,0,0,246.47,247.14Zm-46-136.21a36.08,36.08,0,0,1-14.94,16.83A1.71,1.71,0,0,1,183,126.1a27,27,0,0,0-2-12.87,7.38,7.38,0,0,1,.58-6.56,19.26,19.26,0,0,0,2.69-8.21,2.14,2.14,0,0,1,2.58-1.87,23,23,0,0,1,12.45,6.85A7,7,0,0,1,200.47,110.93ZM193.1,74.12h0a5.14,5.14,0,0,1,3.93,2.2,35.71,35.71,0,0,1,6.37,20.39c0,.51,0,1,0,1.54a1.6,1.6,0,0,1-2.69,1.09,28.05,28.05,0,0,0-14.19-6.75A4.63,4.63,0,0,1,183,89.71a19.6,19.6,0,0,0-4.2-6.51,2.89,2.89,0,0,1,.29-4.3A20.54,20.54,0,0,1,193.1,74.12Zm-54.47,27.26a11.57,11.57,0,0,1,11.57,11.56A11.46,11.46,0,0,1,149,118l-9.12,19.18a1.4,1.4,0,0,1-2.53,0l-9.11-19.16v0a11.32,11.32,0,0,1-1.18-5.09A11.57,11.57,0,0,1,138.63,101.38Zm-26.39,10.78a15.45,15.45,0,1,1,15.45-15.45A15.47,15.47,0,0,1,112.24,112.16Zm37.34-15.45A15.45,15.45,0,1,1,165,112.16,15.47,15.47,0,0,1,149.58,96.71ZM169,62a19,19,0,0,1,8.39.15,35.65,35.65,0,0,1,11.32,5.59,1.58,1.58,0,0,1-.66,2.82,25.78,25.78,0,0,0-12,5.78,7.57,7.57,0,0,1-6.6,1.54,19.65,19.65,0,0,0-4.5-.53,19.22,19.22,0,0,0-11.76,4,1.22,1.22,0,0,1-1.89-1.34C154.45,70.5,160.83,63.54,169,62Zm-46.82,1a35.84,35.84,0,0,1,14.94,10.46,1.94,1.94,0,0,0,2.94,0A35.9,35.9,0,0,1,155,63a1,1,0,0,1,1.07,1.7,31.41,31.41,0,0,0-5.91,8.09,46,46,0,0,0-4.6,23.91,1.58,1.58,0,0,1-2.08,1.6,15.5,15.5,0,0,0-9.77,0,1.58,1.58,0,0,1-2.08-1.6,46,46,0,0,0-4.61-23.91,31.38,31.38,0,0,0-5.9-8.09A1,1,0,0,1,122.22,63ZM88.51,67.77a35.65,35.65,0,0,1,11.32-5.59,19,19,0,0,1,8.4-.15c8.21,1.51,14.58,8.47,17.66,18A1.22,1.22,0,0,1,124,81.39a19.22,19.22,0,0,0-11.76-4,19.59,19.59,0,0,0-4.5.53,7.57,7.57,0,0,1-6.6-1.54,25.82,25.82,0,0,0-12-5.78A1.58,1.58,0,0,1,88.51,67.77ZM73.88,98.25c0-.51,0-1,0-1.54a35.7,35.7,0,0,1,6.36-20.39,5.18,5.18,0,0,1,3.93-2.2h0a20.5,20.5,0,0,1,14,4.78,2.89,2.89,0,0,1,.3,4.3,19.29,19.29,0,0,0-4.2,6.51,4.65,4.65,0,0,1-3.47,2.88,28.09,28.09,0,0,0-14.19,6.75A1.6,1.6,0,0,1,73.88,98.25Zm2.91,12.68A7,7,0,0,1,78,103.44,23,23,0,0,1,90.37,96.6a2.17,2.17,0,0,1,1.52.23l0,0A2.13,2.13,0,0,1,93,98.49a19.08,19.08,0,0,0,2.68,8.17,7.44,7.44,0,0,1,.59,6.57,27.06,27.06,0,0,0-2,12.87,1.72,1.72,0,0,1-2.57,1.67A36.15,36.15,0,0,1,76.79,110.93Zm30.09,85.21c-.57-.72-1.13-1.45-1.68-2.2a82.35,82.35,0,0,1-16.27-49.39,80.81,80.81,0,0,1,.72-10.79,1.75,1.75,0,0,1,2.52-1.35l.06,0a6.28,6.28,0,0,1,3.51,6c-.13,2.15-.21,4.35-.21,6.11a105.25,105.25,0,0,0,12.83,50.6A.89.89,0,0,1,106.88,196.14Zm30.83,61.58-1,2.55-.71,1.82h0a2.26,2.26,0,0,1-2.09,1.43l-9.14,0a.47.47,0,0,1-.44-.64l1.1-2.84a1,1,0,0,0-.55-1.26,2.89,2.89,0,0,0-3.74,1.64l-.66,1.68h0a2.12,2.12,0,0,1-2,1.4h-4.26a.8.8,0,0,1-.75-1.1l1.27-3.26a6.24,6.24,0,0,1,5.85-4h3.85a12.71,12.71,0,0,0,10.86-5.94,103.15,103.15,0,0,0,7.8-15.23,1,1,0,0,1,1.39-.44c1.87,1.18,3.8,2.31,5.76,3.38a2.51,2.51,0,0,1,1,3.33,99.17,99.17,0,0,1-5.86,9.86,6,6,0,0,1-2.53,2.1A10.15,10.15,0,0,0,137.71,257.72ZM163,235.64a1.7,1.7,0,0,1,.68,2.22,99.58,99.58,0,0,1-5.09,9.29,8.89,8.89,0,0,1-7.59,4.13.92.92,0,0,1-.77-1.41,104.8,104.8,0,0,0,8-15.35,1.29,1.29,0,0,1,1.88-.59Q161.57,234.8,163,235.64Zm-2.48-6.91c.38-1.08.74-2.16,1.08-3.25a.8.8,0,0,1,1.29-.37q2,1.68,4.11,3.28a.91.91,0,0,1,.3,1.05c-.33.9-.67,1.79-1,2.68a.73.73,0,0,1-1,.35q-2.22-1.28-4.33-2.63A1,1,0,0,1,160.53,228.73Zm18,10q-1.37,2.77-2.92,5.48c-1.59,2.73-3.29,5.38-5.06,7.87l-1.6,2.32a.47.47,0,0,0,.38.73h2.86a4.48,4.48,0,0,1,4.33,3.33l.89,3.4a1.32,1.32,0,0,1-.24,1.17,1.34,1.34,0,0,1-1.08.53h-1.94a8.8,8.8,0,0,1-3-.5,9.5,9.5,0,0,1-2.27-1.15,2.63,2.63,0,0,0-.92-.41,2.84,2.84,0,0,0-2.17.32l-.75.44a9.21,9.21,0,0,1-3.46,1.16l-.45.06a12.22,12.22,0,0,1-1.35.08H152a1,1,0,0,1-.92-1.35l.89-2.27a.88.88,0,0,0-.5-1.13,3,3,0,0,0-3.87,1.69l-.45,1.19a2.83,2.83,0,0,1-2.68,1.85h-4a.63.63,0,0,1-.52-.28.64.64,0,0,1-.08-.6l1.63-4.19a5.23,5.23,0,0,1,4.88-3.33H151a12.71,12.71,0,0,0,10.86-5.94,104.54,104.54,0,0,0,8.56-17.13.79.79,0,0,1,1.19-.37q2.87,1.94,5.88,3.71A2.54,2.54,0,0,1,178.51,238.74Zm1.8-6.16a105.55,105.55,0,0,1-9.3-6,103.89,103.89,0,0,1-8.73-7.15A101.51,101.51,0,0,1,143.82,197a1,1,0,0,0-1.32-.33,2.86,2.86,0,0,0-1,4,105.54,105.54,0,0,0,13.39,17,9.22,9.22,0,0,1,2.06,9.48c-.77,2.21-1.62,4.38-2.55,6.53a.88.88,0,0,1-1.22.43,100.78,100.78,0,0,1-53.83-89.55c0-1.69.09-3.87.21-6a2.83,2.83,0,0,1,3.3-2.62,40.27,40.27,0,0,0,6.88.59H124a1.09,1.09,0,0,0,1.1-1.06,2.76,2.76,0,0,0-2.76-2.79h-12.6a35.56,35.56,0,0,1-5.4-.41,7.35,7.35,0,0,1-6.22-6.4,22.88,22.88,0,0,1,1.45-10.53,2.66,2.66,0,0,1,3.74-1.44,19.3,19.3,0,0,0,17.78,0,1.5,1.5,0,0,1,1.41,0l0,0a1.53,1.53,0,0,1,.76,1.12,14.87,14.87,0,0,0,1.43,4.7L134.41,140a4.68,4.68,0,0,0,8.45,0l9.63-20.25a15.4,15.4,0,0,0,1.43-4.7,1.57,1.57,0,0,1,.53-1,1.5,1.5,0,0,1,1.64-.17,19.3,19.3,0,0,0,17.82,0,2.68,2.68,0,0,1,3.75,1.44,23,23,0,0,1,1.47,10.33,7.43,7.43,0,0,1-6.25,6.6,35.53,35.53,0,0,1-5.39.41h-12.6a2.75,2.75,0,0,0-2.76,2.79,1.08,1.08,0,0,0,1.1,1.06h.61a1.61,1.61,0,0,1,1.6,1.72c-.14,2.09-.22,4.2-.22,6.34a105.26,105.26,0,0,0,25.52,68.71c.33.39.66.76,1,1.14a11.11,11.11,0,0,1,2.3,10.89q-1.16,3.5-2.55,6.89A.82.82,0,0,1,180.31,232.58Zm30.84,10.49c-.22.39-.43.77-.66,1.15-1.2,2.07-2.47,4.09-3.77,6a1.22,1.22,0,0,1-1.34.48,162.21,162.21,0,0,1-23.21-8.95.77.77,0,0,1-.34-1,106.27,106.27,0,0,0,6.22-15.31,2.38,2.38,0,0,1,3.81-1.09,106.44,106.44,0,0,0,17.44,12.2A4.8,4.8,0,0,1,211.15,243.07Zm29.38.93a101.49,101.49,0,0,1-81.45-99.45c0-1.78.06-3.55.16-5.31a2.93,2.93,0,0,1,2.92-2.75h5a40.38,40.38,0,0,0,25.13-8.69,4.59,4.59,0,0,1,5.43-.19c11.53,7.83,20.72,20.08,25.56,34.31A274.18,274.18,0,0,1,233.24,201a.64.64,0,0,1-.92.69,64.43,64.43,0,0,1-20.11-15.57,63.65,63.65,0,0,1-13.38-25.57,2.65,2.65,0,0,0-3.09-1.91h0a1.27,1.27,0,0,0-1,1.54,67.37,67.37,0,0,0,14.53,28.46,68.11,68.11,0,0,0,21.18,16.42,8.46,8.46,0,0,1,4.57,6.17c.27,1.57.53,3.13.78,4.66.39,2.34.77,4.61,1.15,6.83a.64.64,0,0,1-.82.72,82.68,82.68,0,0,1-53.56-51.53,2.63,2.63,0,0,0-3.26-1.62,1.28,1.28,0,0,0-.82,1.62,86.45,86.45,0,0,0,54.61,54.6,8.65,8.65,0,0,1,5.75,6.46c.72,3.54,1.49,7,2.39,10.23A.63.63,0,0,1,240.53,244Z" transform="translate(-69.49 -56.42)"/><path class="cls-2" d="M113.36,104.49A10.16,10.16,0,0,1,106.5,88.2a.54.54,0,0,0-.74-.75,11.3,11.3,0,1,0,15.74,15.74.54.54,0,0,0-.76-.74A10.17,10.17,0,0,1,113.36,104.49Z" transform="translate(-69.49 -56.42)"/><path class="cls-2" d="M166.15,104.49a10.16,10.16,0,0,1-6.86-16.29.54.54,0,0,0-.74-.75,11.3,11.3,0,1,0,15.74,15.74.54.54,0,0,0-.76-.74A10.17,10.17,0,0,1,166.15,104.49Z" transform="translate(-69.49 -56.42)"/></svg></g></g></g></g></g></g></g></svg>